<svg xmlns="http://www.w3.org/2000/svg" width="113" height="154" fill="none" viewBox="0 0 113 154"><g opacity=".3"><mask id="mask0_519_7161" style="mask-type:alpha" width="113" height="154" x="0" y="0" maskUnits="userSpaceOnUse"><rect width="113" height="154" fill="#C4C4C4"/></mask><g mask="url(#mask0_519_7161)"><rect width=".976" height="1216.28" fill="#000" transform="matrix(0.707107 0.707107 -0.474641 0.88018 21.1135 -735.844)"/><rect width=".976" height="1216.28" fill="#000" transform="matrix(0.707107 0.707107 -0.474641 0.88018 1.40552 -755.553)"/><rect width=".976" height="1216.28" fill="#000" transform="matrix(0.707107 0.707107 -0.474641 0.88018 25.0549 -731.903)"/><rect width=".976" height="1216.28" fill="#000" transform="matrix(0.707107 0.707107 -0.474641 0.88018 5.3465 -751.611)"/><rect width=".976" height="1216.28" fill="#000" transform="matrix(0.707107 0.707107 -0.474641 0.88018 28.996 -727.961)"/><rect width=".976" height="1216.28" fill="#000" transform="matrix(0.707107 0.707107 -0.474641 0.88018 9.28784 -747.669)"/><rect width=".976" height="1216.28" fill="#000" transform="matrix(0.707107 0.707107 -0.474641 0.88018 32.9372 -724.02)"/><rect width=".976" height="1216.28" fill="#000" transform="matrix(0.707107 0.707107 -0.474641 0.88018 13.2289 -743.728)"/><rect width=".976" height="1216.28" fill="#000" transform="matrix(0.707107 0.707107 -0.474641 0.88018 36.8807 -720.077)"/><rect width=".976" height="1216.28" fill="#000" transform="matrix(0.707107 0.707107 -0.474641 0.88018 17.1724 -739.786)"/><rect width=".976" height="1216.28" fill="#000" transform="matrix(0.707107 0.707107 -0.474641 0.88018 40.8218 -716.136)"/><rect width=".976" height="1216.28" fill="#000" transform="matrix(0.707107 0.707107 -0.474641 0.88018 44.7631 -712.194)"/><rect width=".976" height="1216.28" fill="#000" transform="matrix(0.707107 0.707107 -0.474641 0.88018 68.4125 -688.545)"/><rect width=".976" height="1216.28" fill="#000" transform="matrix(0.707107 0.707107 -0.474641 0.88018 48.7041 -708.253)"/><rect width=".976" height="1216.28" fill="#000" transform="matrix(0.707107 0.707107 -0.474641 0.88018 72.356 -684.602)"/><rect width=".976" height="1216.28" fill="#000" transform="matrix(0.707107 0.707107 -0.474641 0.88018 52.6478 -704.311)"/><rect width=".976" height="1216.28" fill="#000" transform="matrix(0.707107 0.707107 -0.474641 0.88018 76.2971 -680.661)"/><rect width=".976" height="1216.28" fill="#000" transform="matrix(0.707107 0.707107 -0.474641 0.88018 56.5891 -700.369)"/><rect width=".976" height="1216.28" fill="#000" transform="matrix(0.707107 0.707107 -0.474641 0.88018 80.2383 -676.719)"/><rect width=".976" height="1216.28" fill="#000" transform="matrix(0.707107 0.707107 -0.474641 0.88018 60.5302 -696.427)"/><rect width=".976" height="1216.28" fill="#000" transform="matrix(0.707107 0.707107 -0.474641 0.88018 84.1793 -672.777)"/><rect width=".976" height="1216.28" fill="#000" transform="matrix(0.707107 0.707107 -0.474641 0.88018 64.4712 -692.486)"/><rect width=".976" height="1216.28" fill="#000" transform="matrix(0.707107 0.707107 -0.474641 0.88018 88.123 -668.835)"/><rect width=".976" height="1216.28" fill="#000" transform="matrix(0.707107 0.707107 -0.474641 0.88018 92.0641 -664.894)"/><rect width=".976" height="1216.28" fill="#000" transform="matrix(0.707107 0.707107 -0.474641 0.88018 115.714 -641.244)"/><rect width=".976" height="1216.28" fill="#000" transform="matrix(0.707107 0.707107 -0.474641 0.88018 96.0052 -660.952)"/><rect width=".976" height="1216.28" fill="#000" transform="matrix(0.707107 0.707107 -0.474641 0.88018 119.655 -637.303)"/><rect width=".976" height="1216.28" fill="#000" transform="matrix(0.707107 0.707107 -0.474641 0.88018 99.9465 -657.011)"/><rect width=".976" height="1216.28" fill="#000" transform="matrix(0.707107 0.707107 -0.474641 0.88018 123.596 -633.361)"/><rect width=".976" height="1216.28" fill="#000" transform="matrix(0.707107 0.707107 -0.474641 0.88018 103.888 -653.069)"/><rect width=".976" height="1216.28" fill="#000" transform="matrix(0.707107 0.707107 -0.474641 0.88018 127.54 -629.418)"/><rect width=".976" height="1216.28" fill="#000" transform="matrix(0.707107 0.707107 -0.474641 0.88018 107.831 -649.127)"/><rect width=".976" height="1216.28" fill="#000" transform="matrix(0.707107 0.707107 -0.474641 0.88018 131.481 -625.477)"/><rect width=".976" height="1216.28" fill="#000" transform="matrix(0.707107 0.707107 -0.474641 0.88018 111.772 -645.185)"/><rect width=".976" height="1216.28" fill="#000" transform="matrix(0.707107 0.707107 -0.474641 0.88018 135.422 -621.536)"/><rect width=".976" height="1216.28" fill="#000" transform="matrix(0.707107 0.707107 -0.474641 0.88018 139.363 -617.594)"/><rect width=".976" height="1216.28" fill="#000" transform="matrix(0.707107 0.707107 -0.474641 0.88018 163.015 -593.943)"/><rect width=".976" height="1216.28" fill="#000" transform="matrix(0.707107 0.707107 -0.474641 0.88018 143.307 -613.651)"/><rect width=".976" height="1216.28" fill="#000" transform="matrix(0.707107 0.707107 -0.474641 0.88018 166.956 -590.002)"/><rect width=".976" height="1216.28" fill="#000" transform="matrix(0.707107 0.707107 -0.474641 0.88018 147.248 -609.71)"/><rect width=".976" height="1216.28" fill="#000" transform="matrix(0.707107 0.707107 -0.474641 0.88018 170.897 -586.06)"/><rect width=".976" height="1216.28" fill="#000" transform="matrix(0.707107 0.707107 -0.474641 0.88018 151.189 -605.769)"/><rect width=".976" height="1216.28" fill="#000" transform="matrix(0.707107 0.707107 -0.474641 0.88018 174.838 -582.119)"/><rect width=".976" height="1216.28" fill="#000" transform="matrix(0.707107 0.707107 -0.474641 0.88018 155.13 -601.827)"/><rect width=".976" height="1216.28" fill="#000" transform="matrix(0.707107 0.707107 -0.474641 0.88018 178.779 -578.177)"/><rect width=".976" height="1216.28" fill="#000" transform="matrix(0.707107 0.707107 -0.474641 0.88018 159.071 -597.886)"/><rect width=".976" height="1216.28" fill="#000" transform="matrix(0.707107 0.707107 -0.474641 0.88018 182.723 -574.235)"/><rect width=".976" height="1216.28" fill="#000" transform="matrix(0.707107 0.707107 -0.474641 0.88018 186.664 -570.294)"/><rect width=".976" height="1216.28" fill="#000" transform="matrix(0.707107 0.707107 -0.474641 0.88018 210.314 -546.644)"/><rect width=".976" height="1216.28" fill="#000" transform="matrix(0.707107 0.707107 -0.474641 0.88018 190.605 -566.352)"/><rect width=".976" height="1216.28" fill="#000" transform="matrix(0.707107 0.707107 -0.474641 0.88018 214.255 -542.702)"/><rect width=".976" height="1216.28" fill="#000" transform="matrix(0.707107 0.707107 -0.474641 0.88018 194.547 -562.41)"/><rect width=".976" height="1216.28" fill="#000" transform="matrix(0.707107 0.707107 -0.474641 0.88018 218.198 -538.76)"/><rect width=".976" height="1216.28" fill="#000" transform="matrix(0.707107 0.707107 -0.474641 0.88018 198.49 -558.468)"/><rect width=".976" height="1216.28" fill="#000" transform="matrix(0.707107 0.707107 -0.474641 0.88018 222.139 -534.818)"/><rect width=".976" height="1216.28" fill="#000" transform="matrix(0.707107 0.707107 -0.474641 0.88018 202.431 -554.526)"/><rect width=".976" height="1216.28" fill="#000" transform="matrix(0.707107 0.707107 -0.474641 0.88018 226.081 -530.877)"/><rect width=".976" height="1216.28" fill="#000" transform="matrix(0.707107 0.707107 -0.474641 0.88018 206.372 -550.585)"/><rect width=".976" height="1216.28" fill="#000" transform="matrix(0.707107 0.707107 -0.474641 0.88018 230.022 -526.935)"/><rect width=".976" height="1216.28" fill="#000" transform="matrix(0.707107 0.707107 -0.474641 0.88018 233.965 -522.993)"/><rect width=".976" height="1216.28" fill="#000" transform="matrix(0.707107 0.707107 -0.474641 0.88018 257.615 -499.343)"/><rect width=".976" height="1216.28" fill="#000" transform="matrix(0.707107 0.707107 -0.474641 0.88018 237.906 -519.051)"/><rect width=".976" height="1216.28" fill="#000" transform="matrix(0.707107 0.707107 -0.474641 0.88018 261.556 -495.401)"/><rect width=".976" height="1216.28" fill="#000" transform="matrix(0.707107 0.707107 -0.474641 0.88018 241.848 -515.11)"/><rect width=".976" height="1216.28" fill="#000" transform="matrix(0.707107 0.707107 -0.474641 0.88018 265.497 -491.46)"/><rect width=".976" height="1216.28" fill="#000" transform="matrix(0.707107 0.707107 -0.474641 0.88018 245.789 -511.169)"/><rect width=".976" height="1216.28" fill="#000" transform="matrix(0.707107 0.707107 -0.474641 0.88018 269.438 -487.519)"/><rect width=".976" height="1216.28" fill="#000" transform="matrix(0.707107 0.707107 -0.474641 0.88018 249.73 -507.227)"/><rect width=".976" height="1216.28" fill="#000" transform="matrix(0.707107 0.707107 -0.474641 0.88018 273.382 -483.576)"/><rect width=".976" height="1216.28" fill="#000" transform="matrix(0.707107 0.707107 -0.474641 0.88018 253.674 -503.285)"/><rect width=".976" height="1216.28" fill="#000" transform="matrix(0.707107 0.707107 -0.474641 0.88018 277.323 -479.635)"/><rect width=".976" height="1216.28" fill="#000" transform="matrix(0.707107 0.707107 -0.474641 0.88018 281.264 -475.693)"/><rect width=".976" height="1216.28" fill="#000" transform="matrix(0.707107 0.707107 -0.474641 0.88018 304.914 -452.044)"/><rect width=".976" height="1216.28" fill="#000" transform="matrix(0.707107 0.707107 -0.474641 0.88018 285.205 -471.752)"/><rect width=".976" height="1216.28" fill="#000" transform="matrix(0.707107 0.707107 -0.474641 0.88018 308.857 -448.101)"/><rect width=".976" height="1216.28" fill="#000" transform="matrix(0.707107 0.707107 -0.474641 0.88018 289.149 -467.809)"/><rect width=".976" height="1216.28" fill="#000" transform="matrix(0.707107 0.707107 -0.474641 0.88018 312.798 -444.16)"/><rect width=".976" height="1216.28" fill="#000" transform="matrix(0.707107 0.707107 -0.474641 0.88018 293.09 -463.868)"/><rect width=".976" height="1216.28" fill="#000" transform="matrix(0.707107 0.707107 -0.474641 0.88018 316.74 -440.218)"/><rect width=".976" height="1216.28" fill="#000" transform="matrix(0.707107 0.707107 -0.474641 0.88018 297.031 -459.926)"/><rect width=".976" height="1216.28" fill="#000" transform="matrix(0.707107 0.707107 -0.474641 0.88018 320.681 -436.277)"/><rect width=".976" height="1216.28" fill="#000" transform="matrix(0.707107 0.707107 -0.474641 0.88018 300.972 -455.985)"/><rect width=".976" height="1216.28" fill="#000" transform="matrix(0.707107 0.707107 -0.474641 0.88018 324.622 -432.335)"/><rect width=".976" height="1216.28" fill="#000" transform="matrix(0.707107 0.707107 -0.474641 0.88018 328.053 -428.905)"/><rect width=".976" height="1216.28" fill="#000" transform="matrix(0.707107 0.707107 -0.474641 0.88018 351.703 -405.255)"/><rect width=".976" height="1216.28" fill="#000" transform="matrix(0.707107 0.707107 -0.474641 0.88018 331.994 -424.963)"/><rect width=".976" height="1216.28" fill="#000" transform="matrix(0.707107 0.707107 -0.474641 0.88018 355.646 -401.312)"/><rect width=".976" height="1216.28" fill="#000" transform="matrix(0.707107 0.707107 -0.474641 0.88018 335.935 -421.022)"/><rect width=".976" height="1216.28" fill="#000" transform="matrix(0.707107 0.707107 -0.474641 0.88018 359.587 -397.371)"/><rect width=".976" height="1216.28" fill="#000" transform="matrix(0.707107 0.707107 -0.474641 0.88018 339.879 -417.079)"/><rect width=".976" height="1216.28" fill="#000" transform="matrix(0.707107 0.707107 -0.474641 0.88018 363.528 -393.43)"/><rect width=".976" height="1216.28" fill="#000" transform="matrix(0.707107 0.707107 -0.474641 0.88018 343.82 -413.138)"/><rect width=".976" height="1216.28" fill="#000" transform="matrix(0.707107 0.707107 -0.474641 0.88018 367.469 -389.488)"/><rect width=".976" height="1216.28" fill="#000" transform="matrix(0.707107 0.707107 -0.474641 0.88018 347.761 -409.196)"/><rect width=".976" height="1216.28" fill="#000" transform="matrix(0.707107 0.707107 -0.474641 0.88018 371.411 -385.547)"/><rect width=".976" height="1216.28" fill="#000" transform="matrix(0.707107 0.707107 -0.474641 0.88018 375.354 -381.604)"/><rect width=".976" height="1216.28" fill="#000" transform="matrix(0.707107 0.707107 -0.474641 0.88018 399.004 -357.954)"/><rect width=".976" height="1216.28" fill="#000" transform="matrix(0.707107 0.707107 -0.474641 0.88018 379.295 -377.663)"/><rect width=".976" height="1216.28" fill="#000" transform="matrix(0.707107 0.707107 -0.474641 0.88018 402.945 -354.013)"/><rect width=".976" height="1216.28" fill="#000" transform="matrix(0.707107 0.707107 -0.474641 0.88018 383.237 -373.721)"/><rect width=".976" height="1216.28" fill="#000" transform="matrix(0.707107 0.707107 -0.474641 0.88018 406.886 -350.071)"/><rect width=".976" height="1216.28" fill="#000" transform="matrix(0.707107 0.707107 -0.474641 0.88018 387.178 -369.78)"/><rect width=".976" height="1216.28" fill="#000" transform="matrix(0.707107 0.707107 -0.474641 0.88018 410.829 -346.129)"/><rect width=".976" height="1216.28" fill="#000" transform="matrix(0.707107 0.707107 -0.474641 0.88018 391.119 -365.838)"/><rect width=".976" height="1216.28" fill="#000" transform="matrix(0.707107 0.707107 -0.474641 0.88018 414.771 -342.187)"/><rect width=".976" height="1216.28" fill="#000" transform="matrix(0.707107 0.707107 -0.474641 0.88018 395.063 -361.896)"/><rect width=".976" height="1216.28" fill="#000" transform="matrix(0.707107 0.707107 -0.474641 0.88018 418.712 -338.246)"/><rect width=".976" height="1216.28" fill="#000" transform="matrix(0.707107 0.707107 -0.474641 0.88018 422.653 -334.305)"/><rect width=".976" height="1216.28" fill="#000" transform="matrix(0.707107 0.707107 -0.474641 0.88018 446.302 -310.654)"/><rect width=".976" height="1216.28" fill="#000" transform="matrix(0.707107 0.707107 -0.474641 0.88018 426.594 -330.363)"/><rect width=".976" height="1216.28" fill="#000" transform="matrix(0.707107 0.707107 -0.474641 0.88018 450.246 -306.712)"/><rect width=".976" height="1216.28" fill="#000" transform="matrix(0.707107 0.707107 -0.474641 0.88018 430.538 -326.421)"/><rect width=".976" height="1216.28" fill="#000" transform="matrix(0.707107 0.707107 -0.474641 0.88018 454.187 -302.771)"/><rect width=".976" height="1216.28" fill="#000" transform="matrix(0.707107 0.707107 -0.474641 0.88018 434.479 -322.479)"/><rect width=".976" height="1216.28" fill="#000" transform="matrix(0.707107 0.707107 -0.474641 0.88018 458.128 -298.829)"/><rect width=".976" height="1216.28" fill="#000" transform="matrix(0.707107 0.707107 -0.474641 0.88018 438.42 -318.537)"/><rect width=".976" height="1216.28" fill="#000" transform="matrix(0.707107 0.707107 -0.474641 0.88018 462.069 -294.888)"/><rect width=".976" height="1216.28" fill="#000" transform="matrix(0.707107 0.707107 -0.474641 0.88018 442.361 -314.596)"/><rect width=".976" height="1216.28" fill="#000" transform="matrix(0.707107 0.707107 -0.474641 0.88018 466.013 -290.945)"/><rect width=".976" height="1216.28" fill="#000" transform="matrix(0.707107 0.707107 -0.474641 0.88018 469.954 -287.004)"/><rect width=".976" height="1216.28" fill="#000" transform="matrix(0.707107 0.707107 -0.474641 0.88018 493.604 -263.354)"/><rect width=".976" height="1216.28" fill="#000" transform="matrix(0.707107 0.707107 -0.474641 0.88018 473.895 -283.062)"/><rect width=".976" height="1216.28" fill="#000" transform="matrix(0.707107 0.707107 -0.474641 0.88018 497.545 -259.412)"/><rect width=".976" height="1216.28" fill="#000" transform="matrix(0.707107 0.707107 -0.474641 0.88018 477.836 -279.121)"/><rect width=".976" height="1216.28" fill="#000" transform="matrix(0.707107 0.707107 -0.474641 0.88018 501.488 -255.47)"/><rect width=".976" height="1216.28" fill="#000" transform="matrix(0.707107 0.707107 -0.474641 0.88018 481.778 -275.179)"/><rect width=".976" height="1216.28" fill="#000" transform="matrix(0.707107 0.707107 -0.474641 0.88018 505.429 -251.529)"/><rect width=".976" height="1216.28" fill="#000" transform="matrix(0.707107 0.707107 -0.474641 0.88018 485.721 -271.237)"/><rect width=".976" height="1216.28" fill="#000" transform="matrix(0.707107 0.707107 -0.474641 0.88018 509.371 -247.587)"/><rect width=".976" height="1216.28" fill="#000" transform="matrix(0.707107 0.707107 -0.474641 0.88018 489.662 -267.296)"/><rect width=".976" height="1216.28" fill="#000" transform="matrix(0.707107 0.707107 -0.474641 0.88018 513.312 -243.646)"/><rect width=".976" height="1216.28" fill="#000" transform="matrix(0.707107 0.707107 -0.474641 0.88018 517.253 -239.704)"/><rect width=".976" height="1216.28" fill="#000" transform="matrix(0.707107 0.707107 -0.474641 0.88018 540.905 -216.054)"/><rect width=".976" height="1216.28" fill="#000" transform="matrix(0.707107 0.707107 -0.474641 0.88018 521.197 -235.762)"/><rect width=".976" height="1216.28" fill="#000" transform="matrix(0.707107 0.707107 -0.474641 0.88018 544.846 -212.112)"/><rect width=".976" height="1216.28" fill="#000" transform="matrix(0.707107 0.707107 -0.474641 0.88018 525.138 -231.82)"/><rect width=".976" height="1216.28" fill="#000" transform="matrix(0.707107 0.707107 -0.474641 0.88018 548.787 -208.171)"/><rect width=".976" height="1216.28" fill="#000" transform="matrix(0.707107 0.707107 -0.474641 0.88018 529.079 -227.879)"/><rect width=".976" height="1216.28" fill="#000" transform="matrix(0.707107 0.707107 -0.474641 0.88018 552.728 -204.229)"/><rect width=".976" height="1216.28" fill="#000" transform="matrix(0.707107 0.707107 -0.474641 0.88018 533.02 -223.937)"/><rect width=".976" height="1216.28" fill="#000" transform="matrix(0.707107 0.707107 -0.474641 0.88018 556.672 -200.287)"/><rect width=".976" height="1216.28" fill="#000" transform="matrix(0.707107 0.707107 -0.474641 0.88018 536.961 -219.996)"/><rect width=".976" height="1216.28" fill="#000" transform="matrix(0.707107 0.707107 -0.474641 0.88018 560.613 -196.345)"/><rect width=".976" height="1216.28" fill="#000" transform="matrix(0.707107 0.707107 -0.474641 0.88018 564.554 -192.404)"/><rect width=".976" height="1216.28" fill="#000" transform="matrix(0.707107 0.707107 -0.474641 0.88018 588.204 -168.754)"/><rect width=".976" height="1216.28" fill="#000" transform="matrix(0.707107 0.707107 -0.474641 0.88018 568.495 -188.462)"/><rect width=".976" height="1216.28" fill="#000" transform="matrix(0.707107 0.707107 -0.474641 0.88018 592.145 -164.812)"/><rect width=".976" height="1216.28" fill="#000" transform="matrix(0.707107 0.707107 -0.474641 0.88018 572.436 -184.52)"/><rect width=".976" height="1216.28" fill="#000" transform="matrix(0.707107 0.707107 -0.474641 0.88018 596.088 -160.87)"/><rect width=".976" height="1216.28" fill="#000" transform="matrix(0.707107 0.707107 -0.474641 0.88018 576.38 -180.578)"/><rect width=".976" height="1216.28" fill="#000" transform="matrix(0.707107 0.707107 -0.474641 0.88018 600.029 -156.928)"/><rect width=".976" height="1216.28" fill="#000" transform="matrix(0.707107 0.707107 -0.474641 0.88018 580.321 -176.637)"/><rect width=".976" height="1216.28" fill="#000" transform="matrix(0.707107 0.707107 -0.474641 0.88018 603.971 -152.987)"/><rect width=".976" height="1216.28" fill="#000" transform="matrix(0.707107 0.707107 -0.474641 0.88018 584.262 -172.695)"/><rect width=".976" height="1216.28" fill="#000" transform="matrix(0.707107 0.707107 -0.474641 0.88018 607.912 -149.045)"/><rect width=".976" height="1216.28" fill="#000" transform="matrix(0.707107 0.707107 -0.474641 0.88018 611.855 -145.103)"/><rect width=".976" height="1216.28" fill="#000" transform="matrix(0.707107 0.707107 -0.474641 0.88018 635.505 -121.453)"/><rect width=".976" height="1216.28" fill="#000" transform="matrix(0.707107 0.707107 -0.474641 0.88018 615.797 -141.162)"/><rect width=".976" height="1216.28" fill="#000" transform="matrix(0.707107 0.707107 -0.474641 0.88018 639.446 -117.512)"/><rect width=".976" height="1216.28" fill="#000" transform="matrix(0.707107 0.707107 -0.474641 0.88018 619.738 -137.22)"/><rect width=".976" height="1216.28" fill="#000" transform="matrix(0.707107 0.707107 -0.474641 0.88018 643.387 -113.57)"/><rect width=".976" height="1216.28" fill="#000" transform="matrix(0.707107 0.707107 -0.474641 0.88018 623.679 -133.278)"/><rect width=".976" height="1216.28" fill="#000" transform="matrix(0.707107 0.707107 -0.474641 0.88018 647.331 -109.628)"/><rect width=".976" height="1216.28" fill="#000" transform="matrix(0.707107 0.707107 -0.474641 0.88018 627.62 -129.337)"/><rect width=".976" height="1216.28" fill="#000" transform="matrix(0.707107 0.707107 -0.474641 0.88018 651.272 -105.686)"/><rect width=".976" height="1216.28" fill="#000" transform="matrix(0.707107 0.707107 -0.474641 0.88018 631.564 -125.395)"/><rect width=".976" height="1216.28" fill="#000" transform="matrix(0.707107 0.707107 -0.474641 0.88018 655.213 -101.745)"/><rect width=".976" height="1216.28" fill="#000" transform="matrix(0.707107 0.707107 -0.474641 0.88018 659.154 -97.8032)"/><rect width=".976" height="1216.28" fill="#000" transform="matrix(0.707107 0.707107 -0.474641 0.88018 682.804 -74.1534)"/><rect width=".976" height="1216.28" fill="#000" transform="matrix(0.707107 0.707107 -0.474641 0.88018 663.095 -93.8618)"/><rect width=".976" height="1216.28" fill="#000" transform="matrix(0.707107 0.707107 -0.474641 0.88018 686.747 -70.2112)"/><rect width=".976" height="1216.28" fill="#000" transform="matrix(0.707107 0.707107 -0.474641 0.88018 667.039 -89.9196)"/><rect width=".976" height="1216.28" fill="#000" transform="matrix(0.707107 0.707107 -0.474641 0.88018 670.98 -85.9781)"/><rect width=".976" height="1216.28" fill="#000" transform="matrix(0.707107 0.707107 -0.474641 0.88018 674.921 -82.0367)"/><rect width=".976" height="1216.28" fill="#000" transform="matrix(0.707107 0.707107 -0.474641 0.88018 678.862 -78.0951)"/></g></g></svg>