<svg xmlns="http://www.w3.org/2000/svg" width="596" height="731" fill="none" viewBox="0 0 596 731"><g opacity=".3"><mask id="mask0_519_9271" style="mask-type:alpha" width="596" height="731" x="0" y="0" maskUnits="userSpaceOnUse"><rect width="596" height="731" fill="#C4C4C4"/></mask><g mask="url(#mask0_519_9271)"><rect width=".976" height="1216.28" fill="#fff" transform="matrix(0.707107 0.707107 -0.474641 0.88018 21.1135 -715.844)"/><rect width=".976" height="1216.28" fill="#fff" transform="matrix(0.707107 0.707107 -0.474641 0.88018 1.40552 -735.553)"/><rect width=".976" height="1216.28" fill="#fff" transform="matrix(0.707107 0.707107 -0.474641 0.88018 25.0549 -711.903)"/><rect width=".976" height="1216.28" fill="#fff" transform="matrix(0.707107 0.707107 -0.474641 0.88018 5.34644 -731.611)"/><rect width=".976" height="1216.28" fill="#fff" transform="matrix(0.707107 0.707107 -0.474641 0.88018 28.9958 -707.961)"/><rect width=".976" height="1216.28" fill="#fff" transform="matrix(0.707107 0.707107 -0.474641 0.88018 9.28784 -727.67)"/><rect width=".976" height="1216.28" fill="#fff" transform="matrix(0.707107 0.707107 -0.474641 0.88018 32.937 -704.02)"/><rect width=".976" height="1216.28" fill="#fff" transform="matrix(0.707107 0.707107 -0.474641 0.88018 13.2288 -723.728)"/><rect width=".976" height="1216.28" fill="#fff" transform="matrix(0.707107 0.707107 -0.474641 0.88018 36.8806 -700.078)"/><rect width=".976" height="1216.28" fill="#fff" transform="matrix(0.707107 0.707107 -0.474641 0.88018 17.1724 -719.786)"/><rect width=".976" height="1216.28" fill="#fff" transform="matrix(0.707107 0.707107 -0.474641 0.88018 40.8218 -696.136)"/><rect width=".976" height="1216.28" fill="#fff" transform="matrix(0.707107 0.707107 -0.474641 0.88018 44.7629 -692.194)"/><rect width=".976" height="1216.28" fill="#fff" transform="matrix(0.707107 0.707107 -0.474641 0.88018 68.4124 -668.545)"/><rect width=".976" height="1216.28" fill="#fff" transform="matrix(0.707107 0.707107 -0.474641 0.88018 48.7041 -688.253)"/><rect width=".976" height="1216.28" fill="#fff" transform="matrix(0.707107 0.707107 -0.474641 0.88018 72.356 -664.602)"/><rect width=".976" height="1216.28" fill="#fff" transform="matrix(0.707107 0.707107 -0.474641 0.88018 52.6477 -684.311)"/><rect width=".976" height="1216.28" fill="#fff" transform="matrix(0.707107 0.707107 -0.474641 0.88018 76.2969 -660.661)"/><rect width=".976" height="1216.28" fill="#fff" transform="matrix(0.707107 0.707107 -0.474641 0.88018 56.5889 -680.369)"/><rect width=".976" height="1216.28" fill="#fff" transform="matrix(0.707107 0.707107 -0.474641 0.88018 80.2383 -656.719)"/><rect width=".976" height="1216.28" fill="#fff" transform="matrix(0.707107 0.707107 -0.474641 0.88018 60.53 -676.428)"/><rect width=".976" height="1216.28" fill="#fff" transform="matrix(0.707107 0.707107 -0.474641 0.88018 84.1792 -652.777)"/><rect width=".976" height="1216.28" fill="#fff" transform="matrix(0.707107 0.707107 -0.474641 0.88018 64.4712 -672.486)"/><rect width=".976" height="1216.28" fill="#fff" transform="matrix(0.707107 0.707107 -0.474641 0.88018 88.123 -648.836)"/><rect width=".976" height="1216.28" fill="#fff" transform="matrix(0.707107 0.707107 -0.474641 0.88018 92.0642 -644.894)"/><rect width=".976" height="1216.28" fill="#fff" transform="matrix(0.707107 0.707107 -0.474641 0.88018 115.714 -621.244)"/><rect width=".976" height="1216.28" fill="#fff" transform="matrix(0.707107 0.707107 -0.474641 0.88018 96.0051 -640.952)"/><rect width=".976" height="1216.28" fill="#fff" transform="matrix(0.707107 0.707107 -0.474641 0.88018 119.655 -617.303)"/><rect width=".976" height="1216.28" fill="#fff" transform="matrix(0.707107 0.707107 -0.474641 0.88018 99.9465 -637.011)"/><rect width=".976" height="1216.28" fill="#fff" transform="matrix(0.707107 0.707107 -0.474641 0.88018 123.596 -613.361)"/><rect width=".976" height="1216.28" fill="#fff" transform="matrix(0.707107 0.707107 -0.474641 0.88018 103.888 -633.069)"/><rect width=".976" height="1216.28" fill="#fff" transform="matrix(0.707107 0.707107 -0.474641 0.88018 127.54 -609.419)"/><rect width=".976" height="1216.28" fill="#fff" transform="matrix(0.707107 0.707107 -0.474641 0.88018 107.831 -629.127)"/><rect width=".976" height="1216.28" fill="#fff" transform="matrix(0.707107 0.707107 -0.474641 0.88018 131.481 -605.477)"/><rect width=".976" height="1216.28" fill="#fff" transform="matrix(0.707107 0.707107 -0.474641 0.88018 111.772 -625.185)"/><rect width=".976" height="1216.28" fill="#fff" transform="matrix(0.707107 0.707107 -0.474641 0.88018 135.422 -601.536)"/><rect width=".976" height="1216.28" fill="#fff" transform="matrix(0.707107 0.707107 -0.474641 0.88018 139.363 -597.594)"/><rect width=".976" height="1216.28" fill="#fff" transform="matrix(0.707107 0.707107 -0.474641 0.88018 163.015 -573.943)"/><rect width=".976" height="1216.28" fill="#fff" transform="matrix(0.707107 0.707107 -0.474641 0.88018 143.306 -593.652)"/><rect width=".976" height="1216.28" fill="#fff" transform="matrix(0.707107 0.707107 -0.474641 0.88018 166.956 -570.002)"/><rect width=".976" height="1216.28" fill="#fff" transform="matrix(0.707107 0.707107 -0.474641 0.88018 147.248 -589.71)"/><rect width=".976" height="1216.28" fill="#fff" transform="matrix(0.707107 0.707107 -0.474641 0.88018 170.897 -566.06)"/><rect width=".976" height="1216.28" fill="#fff" transform="matrix(0.707107 0.707107 -0.474641 0.88018 151.189 -585.769)"/><rect width=".976" height="1216.28" fill="#fff" transform="matrix(0.707107 0.707107 -0.474641 0.88018 174.838 -562.119)"/><rect width=".976" height="1216.28" fill="#fff" transform="matrix(0.707107 0.707107 -0.474641 0.88018 155.13 -581.828)"/><rect width=".976" height="1216.28" fill="#fff" transform="matrix(0.707107 0.707107 -0.474641 0.88018 178.78 -558.177)"/><rect width=".976" height="1216.28" fill="#fff" transform="matrix(0.707107 0.707107 -0.474641 0.88018 159.071 -577.886)"/><rect width=".976" height="1216.28" fill="#fff" transform="matrix(0.707107 0.707107 -0.474641 0.88018 182.723 -554.235)"/><rect width=".976" height="1216.28" fill="#fff" transform="matrix(0.707107 0.707107 -0.474641 0.88018 186.664 -550.294)"/><rect width=".976" height="1216.28" fill="#fff" transform="matrix(0.707107 0.707107 -0.474641 0.88018 210.314 -526.644)"/><rect width=".976" height="1216.28" fill="#fff" transform="matrix(0.707107 0.707107 -0.474641 0.88018 190.605 -546.352)"/><rect width=".976" height="1216.28" fill="#fff" transform="matrix(0.707107 0.707107 -0.474641 0.88018 214.255 -522.702)"/><rect width=".976" height="1216.28" fill="#fff" transform="matrix(0.707107 0.707107 -0.474641 0.88018 194.546 -542.411)"/><rect width=".976" height="1216.28" fill="#fff" transform="matrix(0.707107 0.707107 -0.474641 0.88018 218.198 -518.76)"/><rect width=".976" height="1216.28" fill="#fff" transform="matrix(0.707107 0.707107 -0.474641 0.88018 198.49 -538.468)"/><rect width=".976" height="1216.28" fill="#fff" transform="matrix(0.707107 0.707107 -0.474641 0.88018 222.139 -514.819)"/><rect width=".976" height="1216.28" fill="#fff" transform="matrix(0.707107 0.707107 -0.474641 0.88018 202.431 -534.526)"/><rect width=".976" height="1216.28" fill="#fff" transform="matrix(0.707107 0.707107 -0.474641 0.88018 226.081 -510.877)"/><rect width=".976" height="1216.28" fill="#fff" transform="matrix(0.707107 0.707107 -0.474641 0.88018 206.372 -530.585)"/><rect width=".976" height="1216.28" fill="#fff" transform="matrix(0.707107 0.707107 -0.474641 0.88018 230.022 -506.935)"/><rect width=".976" height="1216.28" fill="#fff" transform="matrix(0.707107 0.707107 -0.474641 0.88018 233.965 -502.993)"/><rect width=".976" height="1216.28" fill="#fff" transform="matrix(0.707107 0.707107 -0.474641 0.88018 257.615 -479.343)"/><rect width=".976" height="1216.28" fill="#fff" transform="matrix(0.707107 0.707107 -0.474641 0.88018 237.906 -499.051)"/><rect width=".976" height="1216.28" fill="#fff" transform="matrix(0.707107 0.707107 -0.474641 0.88018 261.556 -475.402)"/><rect width=".976" height="1216.28" fill="#fff" transform="matrix(0.707107 0.707107 -0.474641 0.88018 241.848 -495.11)"/><rect width=".976" height="1216.28" fill="#fff" transform="matrix(0.707107 0.707107 -0.474641 0.88018 265.497 -471.46)"/><rect width=".976" height="1216.28" fill="#fff" transform="matrix(0.707107 0.707107 -0.474641 0.88018 245.789 -491.169)"/><rect width=".976" height="1216.28" fill="#fff" transform="matrix(0.707107 0.707107 -0.474641 0.88018 269.438 -467.519)"/><rect width=".976" height="1216.28" fill="#fff" transform="matrix(0.707107 0.707107 -0.474641 0.88018 249.73 -487.227)"/><rect width=".976" height="1216.28" fill="#fff" transform="matrix(0.707107 0.707107 -0.474641 0.88018 273.382 -463.577)"/><rect width=".976" height="1216.28" fill="#fff" transform="matrix(0.707107 0.707107 -0.474641 0.88018 253.674 -483.285)"/><rect width=".976" height="1216.28" fill="#fff" transform="matrix(0.707107 0.707107 -0.474641 0.88018 277.323 -459.635)"/><rect width=".976" height="1216.28" fill="#fff" transform="matrix(0.707107 0.707107 -0.474641 0.88018 281.264 -455.693)"/><rect width=".976" height="1216.28" fill="#fff" transform="matrix(0.707107 0.707107 -0.474641 0.88018 304.914 -432.044)"/><rect width=".976" height="1216.28" fill="#fff" transform="matrix(0.707107 0.707107 -0.474641 0.88018 285.205 -451.752)"/><rect width=".976" height="1216.28" fill="#fff" transform="matrix(0.707107 0.707107 -0.474641 0.88018 308.857 -428.101)"/><rect width=".976" height="1216.28" fill="#fff" transform="matrix(0.707107 0.707107 -0.474641 0.88018 289.149 -447.809)"/><rect width=".976" height="1216.28" fill="#fff" transform="matrix(0.707107 0.707107 -0.474641 0.88018 312.798 -424.16)"/><rect width=".976" height="1216.28" fill="#fff" transform="matrix(0.707107 0.707107 -0.474641 0.88018 293.09 -443.868)"/><rect width=".976" height="1216.28" fill="#fff" transform="matrix(0.707107 0.707107 -0.474641 0.88018 316.74 -420.218)"/><rect width=".976" height="1216.28" fill="#fff" transform="matrix(0.707107 0.707107 -0.474641 0.88018 297.031 -439.927)"/><rect width=".976" height="1216.28" fill="#fff" transform="matrix(0.707107 0.707107 -0.474641 0.88018 320.68 -416.277)"/><rect width=".976" height="1216.28" fill="#fff" transform="matrix(0.707107 0.707107 -0.474641 0.88018 300.972 -435.985)"/><rect width=".976" height="1216.28" fill="#fff" transform="matrix(0.707107 0.707107 -0.474641 0.88018 324.622 -412.335)"/><rect width=".976" height="1216.28" fill="#fff" transform="matrix(0.707107 0.707107 -0.474641 0.88018 328.053 -408.905)"/><rect width=".976" height="1216.28" fill="#fff" transform="matrix(0.707107 0.707107 -0.474641 0.88018 351.702 -385.255)"/><rect width=".976" height="1216.28" fill="#fff" transform="matrix(0.707107 0.707107 -0.474641 0.88018 331.994 -404.963)"/><rect width=".976" height="1216.28" fill="#fff" transform="matrix(0.707107 0.707107 -0.474641 0.88018 355.646 -381.312)"/><rect width=".976" height="1216.28" fill="#fff" transform="matrix(0.707107 0.707107 -0.474641 0.88018 335.935 -401.022)"/><rect width=".976" height="1216.28" fill="#fff" transform="matrix(0.707107 0.707107 -0.474641 0.88018 359.587 -377.371)"/><rect width=".976" height="1216.28" fill="#fff" transform="matrix(0.707107 0.707107 -0.474641 0.88018 339.879 -397.08)"/><rect width=".976" height="1216.28" fill="#fff" transform="matrix(0.707107 0.707107 -0.474641 0.88018 363.528 -373.43)"/><rect width=".976" height="1216.28" fill="#fff" transform="matrix(0.707107 0.707107 -0.474641 0.88018 343.82 -393.138)"/><rect width=".976" height="1216.28" fill="#fff" transform="matrix(0.707107 0.707107 -0.474641 0.88018 367.469 -369.488)"/><rect width=".976" height="1216.28" fill="#fff" transform="matrix(0.707107 0.707107 -0.474641 0.88018 347.761 -389.196)"/><rect width=".976" height="1216.28" fill="#fff" transform="matrix(0.707107 0.707107 -0.474641 0.88018 371.411 -365.547)"/><rect width=".976" height="1216.28" fill="#fff" transform="matrix(0.707107 0.707107 -0.474641 0.88018 375.354 -361.604)"/><rect width=".976" height="1216.28" fill="#fff" transform="matrix(0.707107 0.707107 -0.474641 0.88018 399.003 -337.954)"/><rect width=".976" height="1216.28" fill="#fff" transform="matrix(0.707107 0.707107 -0.474641 0.88018 379.295 -357.663)"/><rect width=".976" height="1216.28" fill="#fff" transform="matrix(0.707107 0.707107 -0.474641 0.88018 402.945 -334.013)"/><rect width=".976" height="1216.28" fill="#fff" transform="matrix(0.707107 0.707107 -0.474641 0.88018 383.237 -353.721)"/><rect width=".976" height="1216.28" fill="#fff" transform="matrix(0.707107 0.707107 -0.474641 0.88018 406.886 -330.071)"/><rect width=".976" height="1216.28" fill="#fff" transform="matrix(0.707107 0.707107 -0.474641 0.88018 387.178 -349.78)"/><rect width=".976" height="1216.28" fill="#fff" transform="matrix(0.707107 0.707107 -0.474641 0.88018 410.829 -326.129)"/><rect width=".976" height="1216.28" fill="#fff" transform="matrix(0.707107 0.707107 -0.474641 0.88018 391.119 -345.839)"/><rect width=".976" height="1216.28" fill="#fff" transform="matrix(0.707107 0.707107 -0.474641 0.88018 414.771 -322.188)"/><rect width=".976" height="1216.28" fill="#fff" transform="matrix(0.707107 0.707107 -0.474641 0.88018 395.062 -341.896)"/><rect width=".976" height="1216.28" fill="#fff" transform="matrix(0.707107 0.707107 -0.474641 0.88018 418.712 -318.246)"/><rect width=".976" height="1216.28" fill="#fff" transform="matrix(0.707107 0.707107 -0.474641 0.88018 422.653 -314.305)"/><rect width=".976" height="1216.28" fill="#fff" transform="matrix(0.707107 0.707107 -0.474641 0.88018 446.302 -290.655)"/><rect width=".976" height="1216.28" fill="#fff" transform="matrix(0.707107 0.707107 -0.474641 0.88018 426.594 -310.363)"/><rect width=".976" height="1216.28" fill="#fff" transform="matrix(0.707107 0.707107 -0.474641 0.88018 450.246 -286.713)"/><rect width=".976" height="1216.28" fill="#fff" transform="matrix(0.707107 0.707107 -0.474641 0.88018 430.538 -306.421)"/><rect width=".976" height="1216.28" fill="#fff" transform="matrix(0.707107 0.707107 -0.474641 0.88018 454.187 -282.771)"/><rect width=".976" height="1216.28" fill="#fff" transform="matrix(0.707107 0.707107 -0.474641 0.88018 434.479 -302.479)"/><rect width=".976" height="1216.28" fill="#fff" transform="matrix(0.707107 0.707107 -0.474641 0.88018 458.128 -278.829)"/><rect width=".976" height="1216.28" fill="#fff" transform="matrix(0.707107 0.707107 -0.474641 0.88018 438.42 -298.538)"/><rect width=".976" height="1216.28" fill="#fff" transform="matrix(0.707107 0.707107 -0.474641 0.88018 462.069 -274.888)"/><rect width=".976" height="1216.28" fill="#fff" transform="matrix(0.707107 0.707107 -0.474641 0.88018 442.361 -294.596)"/><rect width=".976" height="1216.28" fill="#fff" transform="matrix(0.707107 0.707107 -0.474641 0.88018 466.013 -270.945)"/><rect width=".976" height="1216.28" fill="#fff" transform="matrix(0.707107 0.707107 -0.474641 0.88018 469.954 -267.004)"/><rect width=".976" height="1216.28" fill="#fff" transform="matrix(0.707107 0.707107 -0.474641 0.88018 493.604 -243.354)"/><rect width=".976" height="1216.28" fill="#fff" transform="matrix(0.707107 0.707107 -0.474641 0.88018 473.895 -263.062)"/><rect width=".976" height="1216.28" fill="#fff" transform="matrix(0.707107 0.707107 -0.474641 0.88018 497.545 -239.413)"/><rect width=".976" height="1216.28" fill="#fff" transform="matrix(0.707107 0.707107 -0.474641 0.88018 477.836 -259.121)"/><rect width=".976" height="1216.28" fill="#fff" transform="matrix(0.707107 0.707107 -0.474641 0.88018 501.488 -235.47)"/><rect width=".976" height="1216.28" fill="#fff" transform="matrix(0.707107 0.707107 -0.474641 0.88018 481.778 -255.179)"/><rect width=".976" height="1216.28" fill="#fff" transform="matrix(0.707107 0.707107 -0.474641 0.88018 505.429 -231.529)"/><rect width=".976" height="1216.28" fill="#fff" transform="matrix(0.707107 0.707107 -0.474641 0.88018 485.721 -251.237)"/><rect width=".976" height="1216.28" fill="#fff" transform="matrix(0.707107 0.707107 -0.474641 0.88018 509.371 -227.588)"/><rect width=".976" height="1216.28" fill="#fff" transform="matrix(0.707107 0.707107 -0.474641 0.88018 489.662 -247.296)"/><rect width=".976" height="1216.28" fill="#fff" transform="matrix(0.707107 0.707107 -0.474641 0.88018 513.312 -223.646)"/><rect width=".976" height="1216.28" fill="#fff" transform="matrix(0.707107 0.707107 -0.474641 0.88018 517.253 -219.704)"/><rect width=".976" height="1216.28" fill="#fff" transform="matrix(0.707107 0.707107 -0.474641 0.88018 540.905 -196.054)"/><rect width=".976" height="1216.28" fill="#fff" transform="matrix(0.707107 0.707107 -0.474641 0.88018 521.197 -215.762)"/><rect width=".976" height="1216.28" fill="#fff" transform="matrix(0.707107 0.707107 -0.474641 0.88018 544.846 -192.112)"/><rect width=".976" height="1216.28" fill="#fff" transform="matrix(0.707107 0.707107 -0.474641 0.88018 525.138 -211.82)"/><rect width=".976" height="1216.28" fill="#fff" transform="matrix(0.707107 0.707107 -0.474641 0.88018 548.787 -188.171)"/><rect width=".976" height="1216.28" fill="#fff" transform="matrix(0.707107 0.707107 -0.474641 0.88018 529.079 -207.879)"/><rect width=".976" height="1216.28" fill="#fff" transform="matrix(0.707107 0.707107 -0.474641 0.88018 552.728 -184.229)"/><rect width=".976" height="1216.28" fill="#fff" transform="matrix(0.707107 0.707107 -0.474641 0.88018 533.02 -203.937)"/><rect width=".976" height="1216.28" fill="#fff" transform="matrix(0.707107 0.707107 -0.474641 0.88018 556.672 -180.287)"/><rect width=".976" height="1216.28" fill="#fff" transform="matrix(0.707107 0.707107 -0.474641 0.88018 536.961 -199.996)"/><rect width=".976" height="1216.28" fill="#fff" transform="matrix(0.707107 0.707107 -0.474641 0.88018 560.613 -176.345)"/><rect width=".976" height="1216.28" fill="#fff" transform="matrix(0.707107 0.707107 -0.474641 0.88018 564.554 -172.404)"/><rect width=".976" height="1216.28" fill="#fff" transform="matrix(0.707107 0.707107 -0.474641 0.88018 588.204 -148.754)"/><rect width=".976" height="1216.28" fill="#fff" transform="matrix(0.707107 0.707107 -0.474641 0.88018 568.495 -168.462)"/><rect width=".976" height="1216.28" fill="#fff" transform="matrix(0.707107 0.707107 -0.474641 0.88018 592.145 -144.812)"/><rect width=".976" height="1216.28" fill="#fff" transform="matrix(0.707107 0.707107 -0.474641 0.88018 572.436 -164.521)"/><rect width=".976" height="1216.28" fill="#fff" transform="matrix(0.707107 0.707107 -0.474641 0.88018 596.088 -140.87)"/><rect width=".976" height="1216.28" fill="#fff" transform="matrix(0.707107 0.707107 -0.474641 0.88018 576.38 -160.579)"/><rect width=".976" height="1216.28" fill="#fff" transform="matrix(0.707107 0.707107 -0.474641 0.88018 600.029 -136.929)"/><rect width=".976" height="1216.28" fill="#fff" transform="matrix(0.707107 0.707107 -0.474641 0.88018 580.321 -156.637)"/><rect width=".976" height="1216.28" fill="#fff" transform="matrix(0.707107 0.707107 -0.474641 0.88018 603.97 -132.987)"/><rect width=".976" height="1216.28" fill="#fff" transform="matrix(0.707107 0.707107 -0.474641 0.88018 584.262 -152.696)"/><rect width=".976" height="1216.28" fill="#fff" transform="matrix(0.707107 0.707107 -0.474641 0.88018 607.911 -129.045)"/><rect width=".976" height="1216.28" fill="#fff" transform="matrix(0.707107 0.707107 -0.474641 0.88018 611.855 -125.103)"/><rect width=".976" height="1216.28" fill="#fff" transform="matrix(0.707107 0.707107 -0.474641 0.88018 635.505 -101.453)"/><rect width=".976" height="1216.28" fill="#fff" transform="matrix(0.707107 0.707107 -0.474641 0.88018 615.797 -121.162)"/><rect width=".976" height="1216.28" fill="#fff" transform="matrix(0.707107 0.707107 -0.474641 0.88018 639.446 -97.5121)"/><rect width=".976" height="1216.28" fill="#fff" transform="matrix(0.707107 0.707107 -0.474641 0.88018 619.738 -117.22)"/><rect width=".976" height="1216.28" fill="#fff" transform="matrix(0.707107 0.707107 -0.474641 0.88018 643.387 -93.5704)"/><rect width=".976" height="1216.28" fill="#fff" transform="matrix(0.707107 0.707107 -0.474641 0.88018 623.679 -113.279)"/><rect width=".976" height="1216.28" fill="#fff" transform="matrix(0.707107 0.707107 -0.474641 0.88018 647.331 -89.6279)"/><rect width=".976" height="1216.28" fill="#fff" transform="matrix(0.707107 0.707107 -0.474641 0.88018 627.62 -109.337)"/><rect width=".976" height="1216.28" fill="#fff" transform="matrix(0.707107 0.707107 -0.474641 0.88018 651.272 -85.6864)"/><rect width=".976" height="1216.28" fill="#fff" transform="matrix(0.707107 0.707107 -0.474641 0.88018 631.564 -105.395)"/><rect width=".976" height="1216.28" fill="#fff" transform="matrix(0.707107 0.707107 -0.474641 0.88018 655.213 -81.7451)"/><rect width=".976" height="1216.28" fill="#fff" transform="matrix(0.707107 0.707107 -0.474641 0.88018 659.154 -77.8033)"/><rect width=".976" height="1216.28" fill="#fff" transform="matrix(0.707107 0.707107 -0.474641 0.88018 682.804 -54.1534)"/><rect width=".976" height="1216.28" fill="#fff" transform="matrix(0.707107 0.707107 -0.474641 0.88018 663.095 -73.8619)"/><rect width=".976" height="1216.28" fill="#fff" transform="matrix(0.707107 0.707107 -0.474641 0.88018 686.747 -50.2113)"/><rect width=".976" height="1216.28" fill="#fff" transform="matrix(0.707107 0.707107 -0.474641 0.88018 667.039 -69.9197)"/><rect width=".976" height="1216.28" fill="#fff" transform="matrix(0.707107 0.707107 -0.474641 0.88018 690.688 -46.2695)"/><rect width=".976" height="1216.28" fill="#fff" transform="matrix(0.707107 0.707107 -0.474641 0.88018 670.98 -65.9783)"/><rect width=".976" height="1216.28" fill="#fff" transform="matrix(0.707107 0.707107 -0.474641 0.88018 694.629 -42.3281)"/><rect width=".976" height="1216.28" fill="#fff" transform="matrix(0.707107 0.707107 -0.474641 0.88018 674.921 -62.0369)"/><rect width=".976" height="1216.28" fill="#fff" transform="matrix(0.707107 0.707107 -0.474641 0.88018 698.571 -38.3866)"/><rect width=".976" height="1216.28" fill="#fff" transform="matrix(0.707107 0.707107 -0.474641 0.88018 678.862 -58.0952)"/><rect width=".976" height="1216.28" fill="#fff" transform="matrix(0.707107 0.707107 -0.474641 0.88018 702.514 -34.4447)"/></g></g></svg>